<?xml version="1.0" encoding="UTF-8"?>
<!DOCTYPE svg PUBLIC "-//W3C//DTD SVG 1.1//EN" "http://www.w3.org/Graphics/SVG/1.1/DTD/svg11.dtd">
<!-- Creator: CorelDRAW Standard 2020 -->
<svg xmlns="http://www.w3.org/2000/svg" xml:space="preserve" width="600mm" height="600mm" version="1.1" style="shape-rendering:geometricPrecision; text-rendering:geometricPrecision; image-rendering:optimizeQuality; fill-rule:evenodd; clip-rule:evenodd"
viewBox="0 0 60000 60000"
 xmlns:xlink="http://www.w3.org/1999/xlink"
 xmlns:xodm="http://www.corel.com/coreldraw/odm/2003">
 <defs>
  <style type="text/css">
   <![CDATA[
    .str0 {stroke:red;stroke-width:7.62;stroke-miterlimit:22.9256}
    .str1 {stroke:red;stroke-width:7.62;stroke-miterlimit:4}
    .fil0 {fill:none;fill-rule:nonzero}
   ]]>
  </style>
 </defs>
 <g id="Grundplatte-Rot" visibility="hidden">
  <metadata id="CorelCorpID_0Corel-Layer"/>
  <g>
   <polygon class="fil0 str0" points="5087.88,7061.05 44852.41,7061.05 44852.41,6197.07 5087.88,6197.07 "/>
  </g>
  <g>
   <polygon class="fil0 str0" points="5087.88,43814.21 44852.41,43814.21 44852.41,42885.56 5087.88,42885.56 "/>
  </g>
  <g>
   <polygon class="fil0 str0" points="5087.88,10399.26 44852.41,10399.26 44852.41,9535.26 5087.88,9535.26 "/>
  </g>
  <g>
   <polygon class="fil0 str0" points="5087.88,13737.47 44852.41,13737.47 44852.41,12873.62 5087.88,12873.62 "/>
  </g>
  <g>
   <polygon class="fil0 str0" points="5087.88,17075.67 44852.41,17075.67 44852.41,16211.83 5087.88,16211.83 "/>
  </g>
  <g>
   <polygon class="fil0 str0" points="5087.88,20413.88 44852.41,20413.88 44852.41,19550.04 5087.88,19550.04 "/>
  </g>
  <g>
   <polygon class="fil0 str0" points="5087.88,23752.44 44852.41,23752.44 44852.41,22888.59 5087.88,22888.59 "/>
  </g>
  <g>
   <polygon class="fil0 str0" points="5087.88,27090.54 44852.41,27090.54 44852.41,26226.69 5087.88,26226.69 "/>
  </g>
  <g>
   <polygon class="fil0 str0" points="5087.88,30428.78 44852.41,30428.78 44852.41,29564.94 5087.88,29564.94 "/>
  </g>
  <g>
   <polygon class="fil0 str0" points="5087.88,33767.02 44852.41,33767.02 44852.41,32903.18 5087.88,32903.18 "/>
  </g>
  <g>
   <polygon class="fil0 str0" points="5087.88,37105.26 44852.41,37105.26 44852.41,36241.42 5087.88,36241.42 "/>
  </g>
  <g>
   <polygon class="fil0 str0" points="5087.88,40443.64 44852.41,40443.64 44852.41,39579.67 5087.88,39579.67 "/>
  </g>
  <g>
   <polygon class="fil0 str0" points="43091.35,44860.49 43483.52,44860.49 43483.52,5098.69 43091.35,5098.69 "/>
  </g>
  <polygon class="fil0 str1" points="994.14,48953.31 48941.57,48953.31 48941.57,1005.87 994.14,1005.87 "/>
  <path class="fil0 str1" d="M41041.12 45572.15l0 2937.01 3937 0 0 -718.5 2500.13 0 0 -449.93 2050.7 0 0 -600.15 -2050.7 0 0 -449.93 -2500.13 0 0 -718.5 -3937 0zm0 0z"/>
  <g>
   <path class="fil0 str0" d="M44852.41 36233.66l0 871.74c729.94,4.87 1318.7,550.48 1319.04,1221.91 -0.34,671.4 -589.1,1217.14 -1319.04,1222.06l0 885.96c1142.73,0.14 2069.16,-940.48 2069.51,-2100.82 0,-557.15 -218.04,-1091.6 -606.14,-1485.53 -388.46,-393.96 -914.61,-615.32 -1463.37,-615.32zm0 0z"/>
  </g>
  <g>
   <path class="fil0 str0" d="M44852.41 29557.18l0 871.6c729.94,5.01 1318.7,550.47 1319.04,1221.91 -0.34,671.57 -589.1,1217.14 -1319.04,1222.18l0 885.98c1142.73,0 2069.16,-940.49 2069.51,-2100.82 0,-557.16 -218.04,-1091.6 -606.14,-1485.53 -388.46,-394.07 -914.61,-615.32 -1463.37,-615.32zm0 0z"/>
  </g>
  <g>
   <path class="fil0 str0" d="M44852.41 22880.66l0 871.78c729.94,4.87 1318.7,550.33 1319.04,1221.73 -0.34,671.75 -589.1,1217.18 -1319.04,1222.22l0 886c1142.73,0 2069.16,-940.65 2069.51,-2100.91 0,-556.96 -218.04,-1091.64 -606.14,-1485.43 -388.46,-394.14 -914.61,-615.39 -1463.37,-615.39zm0 0z"/>
  </g>
  <g>
   <path class="fil0 str0" d="M44852.41 16211.9l0 871.78c729.94,4.87 1318.7,550.33 1319.04,1222.08 -0.34,671.4 -589.1,1216.86 -1319.04,1221.73l0 886.05c1142.73,0 2069.16,-940.31 2069.51,-2100.83 0,-556.95 -218.04,-1091.63 -606.14,-1485.42 -388.46,-394.15 -914.61,-615.39 -1463.37,-615.39zm0 0z"/>
  </g>
  <g>
   <path class="fil0 str0" d="M44852.41 9535.48l0 871.43c729.94,5.21 1318.7,550.69 1319.04,1222.08 -0.34,671.4 -589.1,1217.22 -1319.04,1222.09l0 886.03c1142.73,0 2069.16,-940.29 2069.51,-2100.81 0,-557.29 -218.04,-1091.63 -606.14,-1485.42 -388.46,-394.15 -914.61,-615.4 -1463.37,-615.4zm0 0z"/>
  </g>
  <g>
   <path class="fil0 str0" d="M5087.88 6189.28l0 871.77c-729.6,4.88 -1318.7,550.68 -1318.7,1222.08 0,671.41 589.1,1216.87 1318.7,1221.74l0 886.39c-1142.74,0 -2069.17,-940.65 -2069.17,-2100.82 0,-557.3 218.05,-1091.63 606.15,-1485.77 388.1,-393.8 914.6,-615.39 1463.02,-615.39zm0 0z"/>
  </g>
  <g>
   <path class="fil0 str0" d="M5087.88 12874.04l0 871.77c-729.6,4.87 -1318.7,550.34 -1318.7,1221.74 0,671.74 589.1,1217.22 1318.7,1222.09l0 886.03c-1142.74,0 -2069.17,-940.65 -2069.17,-2100.81 0,-557.3 218.05,-1091.64 606.15,-1485.43 388.1,-394.14 914.6,-615.39 1463.02,-615.39zm0 0z"/>
  </g>
  <g>
   <path class="fil0 str0" d="M5087.88 19550.8l0 871.43c-729.6,4.86 -1318.7,550.34 -1318.7,1221.73 0,671.75 589.1,1217.22 1318.7,1222.43l0 886.05c-1142.74,0 -2069.17,-940.66 -2069.17,-2101.17 0,-556.95 218.05,-1091.28 606.15,-1485.42 388.1,-394.15 914.6,-615.4 1463.02,-615.05zm0 0z"/>
  </g>
  <g>
   <path class="fil0 str0" d="M5087.88 26218.93l0 871.61c-729.6,5.01 -1318.7,550.47 -1318.7,1221.91 0,671.57 589.1,1217.14 1318.7,1222.18l0 885.98c-1142.74,0 -2069.17,-940.49 -2069.17,-2100.82 0,-557.16 218.05,-1091.6 606.15,-1485.53 388.1,-394.07 914.6,-615.46 1463.02,-615.33zm0 0z"/>
  </g>
  <g>
   <path class="fil0 str0" d="M5087.88 32903.56l0 871.74c-729.6,4.91 -1318.7,550.48 -1318.7,1221.91 0,671.43 589.1,1217.15 1318.7,1222.05l0 886.14c-1142.74,0 -2069.17,-940.62 -2069.17,-2100.99 0,-557.16 218.05,-1091.59 606.15,-1485.53 388.1,-393.93 914.6,-615.32 1463.02,-615.32zm0 0z"/>
  </g>
  <g>
   <path class="fil0 str0" d="M5087.88 39612.4l0 871.73c-729.6,4.87 -1318.7,550.48 -1318.7,1221.92 0,671.53 589.1,1217.15 1318.7,1222.15l0 886.01c-1142.74,0 -2069.17,-940.63 -2069.17,-2100.82 0,-557.16 218.05,-1091.6 606.15,-1485.57 388.1,-394.07 914.6,-615.42 1463.02,-615.42zm0 0z"/>
  </g>
  <path class="fil0 str1" d="M39111.07 2269.63l2369.25 383.12c164.05,26.45 274.82,179.91 248.36,343.95 -26.46,164.05 -179.92,274.82 -343.96,248.36l-2369.25 -383.12c-164.4,-26.46 -274.82,-179.91 -248.36,-343.96 26.46,-164.04 179.92,-274.81 343.96,-248.35zm0 0z"/>
  <path class="fil0 str1" d="M10824.29 2269.63l-2369.26 383.12c-164.04,26.45 -274.81,179.91 -248,343.95 26.46,164.05 179.92,274.82 343.96,248.36l2369.25 -383.12c164.05,-26.46 274.82,-179.91 248.01,-343.96 -26.46,-164.04 -179.57,-274.81 -343.96,-248.35zm0 0z"/>
  <path class="fil0 str1" d="M25260.66 2757.17c0,161.92 -131.23,292.8 -292.8,292.8 -161.58,0 -292.81,-130.88 -292.81,-292.8 0,-161.57 131.23,-292.46 292.81,-292.46 161.57,0 292.8,130.89 292.8,292.46zm0 0z"/>
 </g>
</svg>
